<?xml version="1.0" encoding="UTF-8"?><svg id="Warstwa_1" xmlns="http://www.w3.org/2000/svg" viewBox="0 0 500 500"><defs><style>.cls-1{fill:#131e42;}.cls-2{fill:#fff;}.cls-3{fill:#009ed2;}.cls-4{fill:#00bef1;}.cls-5{fill:#005f8f;}.cls-6{fill:#048dc2;}.cls-7{fill:#121e42;}.cls-8{fill:#121617;}</style></defs><polygon class="cls-6" points="277.97 258.42 295.68 152.8 325.44 171.1 309.99 258.42 277.97 258.42"/><polygon class="cls-1" points="277.97 258.42 268.37 237.19 256.85 211.47 295.68 152.8 277.97 258.42"/><polygon class="cls-4" points="256.85 211.47 217.15 211.47 245.32 121.44 295.9 152.31 256.85 211.47"/><polygon class="cls-6" points="169.13 258.42 185.13 176.75 245.32 121.44 202.42 258.42 169.13 258.42"/><polygon class="cls-1" points="169.13 258.42 154.4 189.6 149.28 166.45 185.13 176.75 169.13 258.42"/><polygon class="cls-5" points="245.32 121.44 221.78 64.02 307.78 95.9 351.78 187.67 245.32 121.44"/><polygon class="cls-3" points="185.13 176.75 139.45 67.21 215.96 50 245.32 121.44 185.13 176.75"/><polygon class="cls-5" points="83.97 147.8 139.45 67.21 185.13 176.75 83.97 147.8"/><polygon class="cls-3" points="114.06 233.98 96.77 225.62 83.97 147.8 124.31 159.38 114.06 233.98"/><polygon class="cls-1" points="83.97 235.26 96.77 225.62 114.06 233.98 90.37 245.55 83.97 235.26"/><path class="cls-8" d="M80.77,349.67h-17.17l8.82-52.47c.23-1.34,.63-2.63,1.22-3.85,.58-1.23,1.63-2.33,3.14-3.33,1.18-.76,2.34-1.23,3.48-1.4,1.14-.18,2.26-.26,3.37-.26h21.55c.76,0,1.67,.04,2.74,.13,1.07,.09,2.18,.29,3.36,.61,1.17,.32,2.33,.8,3.48,1.45,1.15,.64,2.15,1.52,3.02,2.62,.96,1.23,1.65,2.59,2.07,4.08,.42,1.49,.66,3.01,.72,4.55,.06,1.55,.01,3.05-.15,4.51-.16,1.46-.33,2.75-.52,3.85-.17,.99-.41,2.27-.73,3.81-.32,1.55-.74,3.17-1.26,4.87-.52,1.69-1.18,3.38-1.99,5.08-.81,1.69-1.76,3.18-2.86,4.47-1.3,1.51-2.7,2.7-4.19,3.54-1.48,.85-2.99,1.48-4.52,1.88-1.53,.41-3,.68-4.42,.79-1.42,.12-2.74,.18-3.97,.18h-12.7l-2.51,14.89Zm12.13-27.33c1.87,0,3.37-.41,4.5-1.23,1.13-.82,1.96-1.61,2.5-2.37,.63-.93,1.09-2,1.42-3.19,.32-1.2,.6-2.56,.86-4.07,.22-1.35,.39-2.57,.49-3.69,.1-1.11,.05-2.13-.14-3.06-.19-.93-.54-1.66-1.03-2.18-.5-.53-1.03-.92-1.6-1.19-.57-.26-1.12-.43-1.67-.48-.54-.06-.93-.09-1.17-.09h-6.04c-.18,0-.44,.07-.78,.22-.35,.14-.59,.27-.72,.39-.48,.41-.77,.94-.88,1.58l-3.25,19.36h7.53Z"/><path class="cls-8" d="M130.54,273.46h17.17l-2.5,14.89h10.25c1.29,0,2.6,.01,3.94,.04,1.34,.03,2.66,.15,3.97,.35,1.31,.2,2.56,.54,3.77,1,1.2,.47,2.35,1.14,3.42,2.02,1.9,1.57,3.18,3.51,3.84,5.82,.66,2.3,.8,4.6,.42,6.87l-5.1,30.3h-17.17l3.98-23.65c.19-1.11,.27-2.4,.25-3.85-.02-1.46-.53-2.83-1.54-4.11-.86-1.17-1.89-1.91-3.09-2.24-1.2-.32-2.39-.48-3.56-.48h-5.43l-5.77,34.34h-17.17l10.31-61.31Z"/><path class="cls-8" d="M189.56,349.67h-17.17l8.82-52.47c.23-1.34,.63-2.63,1.22-3.85,.59-1.23,1.63-2.33,3.14-3.33,1.18-.76,2.34-1.23,3.48-1.4,1.14-.18,2.26-.26,3.37-.26h21.55c.76,0,1.67,.04,2.73,.13,1.07,.09,2.18,.29,3.36,.61,1.17,.32,2.33,.8,3.48,1.45,1.14,.64,2.15,1.52,3.02,2.62,.96,1.23,1.65,2.59,2.07,4.08,.42,1.49,.66,3.01,.72,4.55,.06,1.55,.01,3.05-.15,4.51-.16,1.46-.33,2.75-.52,3.85-.16,.99-.41,2.27-.73,3.81-.32,1.55-.74,3.17-1.26,4.87-.52,1.69-1.18,3.38-1.99,5.08-.81,1.69-1.76,3.18-2.85,4.47-1.3,1.51-2.7,2.7-4.19,3.54-1.48,.85-2.99,1.48-4.52,1.88-1.53,.41-3,.68-4.42,.79-1.42,.12-2.74,.18-3.97,.18h-12.7l-2.5,14.89Zm12.13-27.33c1.87,0,3.37-.41,4.5-1.23,1.13-.82,1.96-1.61,2.5-2.37,.62-.93,1.1-2,1.41-3.19,.32-1.2,.6-2.56,.86-4.07,.23-1.35,.39-2.57,.49-3.69,.1-1.11,.05-2.13-.14-3.06-.19-.93-.54-1.66-1.03-2.18-.5-.53-1.03-.92-1.6-1.19-.57-.26-1.13-.43-1.67-.48-.55-.06-.94-.09-1.17-.09h-6.04c-.17,0-.44,.07-.78,.22-.35,.14-.59,.27-.72,.39-.48,.41-.77,.94-.88,1.58l-3.25,19.36h7.53Z"/><path class="cls-8" d="M247.68,334.77c-1.75,0-3.41-.03-4.98-.09-1.57-.06-3.02-.28-4.36-.66-1.34-.38-2.52-.98-3.55-1.79-1.03-.82-1.88-1.99-2.56-3.5-.71-1.7-.99-3.84-.85-6.44,.15-2.59,.57-6,1.28-10.2,.35-2.1,.69-4.12,1.02-6.04,.32-1.93,.73-3.72,1.21-5.39,.49-1.67,1.11-3.2,1.87-4.6,.76-1.4,1.76-2.63,2.98-3.68,1.24-1.11,2.71-1.98,4.42-2.59,1.71-.61,3.55-1.06,5.53-1.36,1.98-.29,4.03-.46,6.18-.53,2.14-.06,4.32-.09,6.54-.09,4.73,0,8.62,.15,11.67,.44,3.04,.3,5.37,1.2,6.98,2.71,.96,.88,1.67,1.96,2.13,3.25,.45,1.28,.74,2.62,.86,4.03,.11,1.4,.09,2.82-.06,4.25-.16,1.43-.34,2.79-.56,4.07-.25,1.52-.64,3.05-1.17,4.6-.52,1.54-1.54,2.84-3.06,3.89-.86,.65-1.68,1.02-2.42,1.14-.75,.12-1.53,.18-2.35,.18h-25.31c-.16,.64-.24,1.31-.21,2.01,.03,.7,.15,1.29,.36,1.75,.56,1.17,1.55,1.83,2.95,1.97,1.41,.15,2.87,.22,4.39,.22h22.51l-2.09,12.44h-29.34Zm15.95-29.25c1.22,0,2.05-.29,2.47-.88,.42-.58,.66-1.11,.75-1.58,.11-.64,0-1.25-.3-1.84-.31-.58-1.08-1.02-2.32-1.31-.68-.11-1.48-.21-2.41-.26-.92-.06-1.62-.08-2.09-.08-.99,0-2.08,.04-3.27,.13-1.18,.09-2.12,.3-2.82,.66-.95,.46-1.62,1.15-2.01,2.05-.39,.91-.62,1.94-.7,3.11h12.7Z"/><path class="cls-8" d="M287.45,307.89c.19-1.11,.44-2.32,.74-3.64,.31-1.31,.77-2.66,1.38-4.03,.61-1.37,1.39-2.69,2.34-3.98,.94-1.28,2.15-2.45,3.61-3.5,1.46-1.05,3-1.87,4.62-2.45,1.61-.58,3.22-1.02,4.82-1.31,1.59-.3,3.11-.47,4.56-.53,1.44-.06,2.74-.08,3.91-.08h11.39l-2.03,12.08h-5.96c-1.7,0-3.32,.19-4.87,.57-1.55,.38-3.01,1.3-4.36,2.76-1.22,1.34-2.1,2.82-2.63,4.42-.53,1.61-.91,3.08-1.14,4.42l-3.73,22.16h-17.17l4.52-26.89Z"/><path class="cls-8" d="M322.99,322.34h25.31c.35,0,.72-.12,1.11-.35,.32-.18,.52-.46,.58-.87,.05-.29,0-.51-.15-.66-.15-.14-.3-.28-.46-.39-.27-.18-.73-.36-1.39-.57-.67-.2-1.85-.63-3.55-1.27l-9.44-3.24c-1.98-.7-3.74-1.53-5.27-2.5-1.53-.97-2.61-2.17-3.24-3.64-.46-1.11-.69-2.39-.71-3.85-.02-1.47,.07-2.78,.27-3.94,.25-1.46,.65-2.9,1.21-4.34,.56-1.43,1.35-2.76,2.38-3.99,1.54-1.87,3.23-3.06,5.07-3.59,1.84-.52,3.99-.78,6.44-.78h31.01l-2,11.91h-25.22c-.29,0-.61-.01-.96-.05-.35-.02-.7,.02-1.07,.14-.24,.06-.45,.13-.61,.21-.16,.09-.26,.28-.31,.57-.06,.35,0,.59,.15,.7,.16,.12,.37,.23,.64,.35,.5,.17,.85,.31,1.07,.39,.22,.09,.41,.18,.57,.27,.16,.09,.35,.17,.57,.26,.22,.09,.57,.21,1.07,.39l11.08,3.95c2.32,.82,4.29,1.66,5.92,2.54,1.63,.88,2.87,2.13,3.7,3.77,.84,1.57,1.24,3.21,1.19,4.9-.05,1.69-.16,3.04-.33,4.03-.29,1.7-.83,3.45-1.63,5.26-.8,1.82-2.1,3.36-3.89,4.64-1.39,1-2.78,1.61-4.16,1.84-1.39,.24-2.66,.35-3.83,.35h-33.2l2.09-12.44Z"/><g><path class="cls-6" d="M404.89,395.2l-161.58,12.28c-3.89,.3-7.16-2.88-6.97-6.78l1.92-39.84c.16-3.27,2.73-5.91,5.99-6.16l162.41-12.26c3.94-.3,7.23,2.97,6.96,6.92l-2.75,39.82c-.22,3.21-2.77,5.78-5.98,6.02"/><path class="cls-7" d="M427.46,441.73l-111.94,8.25c-4.35,.32-7.96-3.32-7.6-7.66l3.16-38.58c.28-3.49,3.06-6.24,6.55-6.5l111.13-8.26c4.29-.32,7.88,3.22,7.62,7.52l-2.35,38.59c-.22,3.55-3.02,6.39-6.57,6.65"/><g><path class="cls-2" d="M265.08,392.09c-1.56,.11-3.03,.1-4.39-.03-1.36-.13-2.55-.38-3.57-.74l-.32-4.5c1.14,.38,2.36,.66,3.67,.84,1.31,.19,2.58,.24,3.81,.15,1.76-.12,3.05-.38,3.86-.77,.81-.39,1.17-1.16,1.09-2.32-.05-.73-.27-1.3-.65-1.7-.38-.4-1.02-.74-1.92-1.02-.89-.28-2.15-.58-3.77-.89-2.6-.53-4.45-1.28-5.56-2.27-1.11-.99-1.73-2.41-1.86-4.28-.16-2.24,.54-4.03,2.09-5.35,1.55-1.33,3.89-2.1,7.02-2.32,1.46-.1,2.83-.1,4.11,.01,1.27,.11,2.31,.28,3.11,.5l.32,4.5c-2.12-.63-4.3-.87-6.55-.72-1.59,.11-2.82,.37-3.71,.78-.88,.4-1.29,1.15-1.21,2.23,.05,.63,.24,1.12,.6,1.48,.35,.36,.94,.66,1.75,.9,.82,.25,1.95,.51,3.42,.78,2.03,.39,3.61,.91,4.75,1.57,1.14,.65,1.94,1.43,2.43,2.34,.48,.9,.76,1.93,.85,3.09,.15,2.12-.54,3.88-2.06,5.28-1.52,1.4-3.96,2.22-7.31,2.45Z"/><path class="cls-2" d="M290.15,390.32c-3.35,.24-6.06-.39-8.13-1.88-2.07-1.49-3.21-3.78-3.43-6.88l-1.07-15.2,5.1-.36,1.05,14.82c.13,1.87,.73,3.22,1.81,4.07,1.07,.85,2.53,1.21,4.37,1.08,1.84-.13,3.23-.69,4.16-1.68,.93-.99,1.33-2.42,1.2-4.28l-1.05-14.82,5.1-.36,1.07,15.2c.22,3.1-.58,5.53-2.41,7.3-1.83,1.76-4.42,2.76-7.77,3Z"/><path class="cls-2" d="M306.04,388.82l-1.72-24.35,5.14-.36,8.18,14.13,6.11-15.14,5.1-.36,1.72,24.35-5.1,.36-1.12-15.84-4.85,12.05-2.95,.21-6.53-11.24,1.12,15.84-5.1,.36Z"/><path class="cls-2" d="M335.84,386.71l-1.72-24.35,5.14-.36,8.18,14.13,6.11-15.14,5.1-.36,1.72,24.35-5.1,.36-1.12-15.84-4.85,12.05-2.95,.21-6.53-11.24,1.12,15.84-5.1,.36Z"/><path class="cls-2" d="M365.63,384.61l-1.72-24.35,5.1-.36,1.72,24.35-5.1,.36Z"/><path class="cls-2" d="M381.96,383.46l-1.44-20.42-7.49,.53-.28-3.93,20.04-1.42,.28,3.93-7.45,.53,1.44,20.42-5.1,.36Z"/></g><g><path class="cls-2" d="M326.63,434.22c-.19-.17-.3-.37-.32-.62l-.2-2.72c-.05-.73,.21-1.35,.78-1.88l3.14-3.55c2.17-1.91,3.81-3.39,4.92-4.44,1.1-1.05,1.94-1.99,2.5-2.83,.56-.83,.82-1.6,.76-2.3-.13-1.79-1.09-2.62-2.88-2.49-.94,.07-1.65,.4-2.12,1.01-.47,.61-.75,1.34-.86,2.2-.1,.57-.5,.87-1.17,.92l-4.79,.35c-.22,.02-.41-.05-.58-.2-.17-.15-.26-.31-.27-.51-.07-1.6,.27-3.08,1.01-4.43s1.83-2.47,3.28-3.34c1.45-.87,3.15-1.38,5.11-1.52,2.03-.15,3.81,.05,5.33,.6,1.52,.55,2.71,1.39,3.56,2.51,.85,1.13,1.33,2.48,1.44,4.06,.13,1.74-.3,3.35-1.27,4.83-.98,1.48-2.5,3.12-4.59,4.93l-2.79,3.23,9.18-.66c.27-.02,.49,.05,.67,.21s.28,.37,.3,.64l.28,3.88c.02,.24-.05,.46-.21,.65s-.37,.3-.63,.32l-18.91,1.37c-.24,.02-.46-.06-.65-.23Z"/><path class="cls-2" d="M353.29,430.27c-1.87-1.62-2.99-3.85-3.36-6.69-.14-1.3-.25-2.48-.33-3.52-.08-1.06-.14-2.28-.19-3.63-.03-1.82,.3-3.47,1.01-4.94,.71-1.47,1.8-2.68,3.28-3.61,1.48-.93,3.32-1.48,5.52-1.64,2.2-.16,4.11,.12,5.71,.83,1.61,.71,2.87,1.75,3.78,3.1s1.48,2.94,1.71,4.75c.1,.67,.21,1.88,.33,3.62,.12,1.69,.18,2.87,.18,3.53,.04,2.87-.75,5.23-2.37,7.1s-4.11,2.94-7.47,3.2c-3.34,.22-5.95-.48-7.81-2.1Zm9.88-4.67c.5-.78,.73-1.85,.68-3.21,0-.71-.06-1.84-.17-3.42-.11-1.57-.22-2.68-.31-3.33-.14-1.3-.52-2.31-1.13-3.04-.61-.72-1.49-1.04-2.62-.96-2.18,.16-3.23,1.66-3.14,4.49,.02,.66,.09,1.77,.21,3.34,.11,1.57,.21,2.71,.28,3.41,.33,2.82,1.58,4.15,3.75,4,1.14-.08,1.96-.51,2.46-1.29Z"/><path class="cls-2" d="M375.27,430.71c-.19-.17-.3-.37-.32-.62l-.2-2.72c-.05-.73,.21-1.35,.78-1.88l3.14-3.55c2.17-1.91,3.81-3.39,4.92-4.44,1.1-1.05,1.94-1.99,2.5-2.83,.56-.83,.82-1.59,.76-2.3-.13-1.79-1.09-2.62-2.88-2.49-.94,.07-1.65,.4-2.12,1.01-.47,.61-.75,1.34-.86,2.2-.11,.57-.5,.87-1.17,.92l-4.79,.35c-.22,.02-.41-.05-.58-.19-.17-.15-.26-.32-.27-.51-.07-1.6,.27-3.08,1.01-4.43,.74-1.35,1.83-2.47,3.28-3.34,1.45-.87,3.15-1.38,5.11-1.52,2.03-.15,3.81,.05,5.33,.6,1.52,.55,2.71,1.39,3.56,2.52,.85,1.13,1.33,2.48,1.44,4.06,.13,1.74-.3,3.35-1.27,4.83-.98,1.48-2.5,3.12-4.59,4.93l-2.79,3.23,9.18-.66c.27-.02,.49,.05,.67,.21,.18,.16,.28,.37,.3,.63l.28,3.88c.02,.24-.05,.46-.21,.65s-.37,.3-.63,.32l-18.91,1.37c-.24,.02-.46-.06-.66-.23Z"/><path class="cls-2" d="M403.18,428.22c-1.66-.62-2.91-1.45-3.75-2.48s-1.33-2.09-1.45-3.18c-.02-.22,.05-.4,.2-.56,.15-.16,.33-.24,.55-.26l5.01-.36c.29-.02,.52,.02,.7,.11,.18,.1,.35,.26,.51,.49,.55,1.15,1.86,1.65,3.94,1.5,1.18-.09,2.08-.43,2.7-1.03,.61-.6,.89-1.38,.82-2.32-.13-1.81-1.41-2.63-3.83-2.46l-4.07,.29c-.27,.02-.5-.06-.69-.22-.19-.17-.3-.39-.32-.65l-.15-2.14c-.04-.56,.13-.98,.53-1.28l5.5-5.21-10.02,.72c-.24,.02-.46-.06-.66-.23-.19-.17-.3-.37-.32-.62l-.26-3.59c-.02-.27,.05-.5,.2-.69,.16-.19,.37-.3,.63-.32l16.91-1.22c.27-.02,.49,.06,.67,.22,.18,.17,.28,.39,.3,.65l.23,3.23c.04,.51-.13,.92-.5,1.24l-5.02,5.29,.26,.05c2.2,.16,3.98,.78,5.35,1.88,1.37,1.09,2.13,2.75,2.29,4.98,.12,1.62-.25,3.08-1.09,4.36-.84,1.29-2.06,2.32-3.64,3.09-1.59,.77-3.42,1.23-5.5,1.38-2.37,.17-4.39-.05-6.05-.68Z"/></g></g></svg>