<?xml version="1.0" encoding="utf-8"?>
<!-- Generator: Adobe Illustrator 18.1.1, SVG Export Plug-In . SVG Version: 6.00 Build 0)  -->
<!DOCTYPE svg PUBLIC "-//W3C//DTD SVG 1.1//EN" "http://www.w3.org/Graphics/SVG/1.1/DTD/svg11.dtd">
<svg version="1.1" id="Ebene_1" xmlns="http://www.w3.org/2000/svg" xmlns:xlink="http://www.w3.org/1999/xlink" x="0px" y="0px"
	 viewBox="0 0 192.089 47.516" enable-background="new 0 0 192.089 47.516" xml:space="preserve">
<path fill="#FF7300" d="M7.638,32.625H1.226c-0.433,0-0.745-0.119-0.937-0.359C0.096,32.025,0,31.738,0,31.402v-20.43
	c0-0.335,0.12-0.622,0.36-0.862c0.24-0.24,0.528-0.36,0.865-0.36h6.412v3.669H3.75v15.537h3.888V32.625z M8.562,26.375h10.312
	V16.062H8.562V26.375z M19.8,32.625h6.412c0.432,0,0.744-0.119,0.937-0.359c0.192-0.24,0.289-0.527,0.289-0.863v-20.43
	c0-0.335-0.12-0.622-0.36-0.862c-0.24-0.24-0.529-0.36-0.865-0.36H19.8v3.669h3.888v15.537H19.8V32.625z"/>
<path fill="#FF7300" d="M53.854,26.223c0,1.056-0.12,1.907-0.36,2.555c-0.24,0.648-0.721,1.33-1.441,2.049
	c-1.201,1.199-2.762,1.799-4.683,1.799h-8.431c-0.385,0-0.745-0.168-1.081-0.504c-0.336-0.336-0.504-0.695-0.504-1.08V0h3.75v9.75
	h6.267c1.008,0,1.849,0.12,2.521,0.36c0.672,0.24,1.368,0.72,2.089,1.438c1.248,1.247,1.873,2.781,1.873,4.603V26.223z
	 M50.104,25.78v-9.113c0-0.957-0.312-1.734-0.937-2.332c-0.624-0.598-1.392-0.898-2.304-0.898h-5.76v15.5h5.76
	c0.576,0,1.02-0.048,1.332-0.144c0.311-0.096,0.636-0.335,0.973-0.718C49.792,27.502,50.104,26.737,50.104,25.78z"/>
<path fill="#FF7300" d="M58.25,0.062H62v3.744h-3.75V0.062z M62,32.625h-3.75V9.729H62V32.625z"/>
<path fill="#FF7300" d="M70.548,32.661c-0.385,0-0.746-0.168-1.082-0.504c-0.338-0.336-0.506-0.695-0.506-1.08v-17.64h-3.311V9.75
	h3.311V0.062h3.75V9.75h4.105h2.16v3.688H72.71v15.552h3.602v3.672h-3.674H70.548z"/>
<path fill="#3B4144" d="M98.923,32.625h-0.504h-14.41c-0.48,0-0.865-0.144-1.154-0.432c-0.287-0.288-0.432-0.673-0.432-1.153V1.72
	c0-0.576,0.145-0.997,0.432-1.261c0.289-0.264,0.674-0.396,1.154-0.396h14.914V3.75h-12.75v9.375h11.16v1.88v1.808h-11.16v12.125
	h12.75V32.625z"/>
<path fill="#3B4144" d="M121.302,9.75l-7.775,11.438l7.633,11.438h-4.682l-5.471-8.345l-5.473,8.345h-4.535l7.631-11.438
	L100.927,9.75h4.68l5.4,8.416l5.615-8.416H121.302z"/>
<path fill="#3B4144" d="M138.876,17.945c-0.912,3.978-3.434,5.872-7.561,5.68h-3.312v9h-3.75V10.901
	c0-0.336,0.107-0.611,0.324-0.827c0.217-0.216,0.469-0.324,0.758-0.324h5.908c2.496-0.047,4.475,0.756,5.939,2.409
	C138.648,13.812,139.212,15.741,138.876,17.945z M135.191,16.651c0-0.856-0.324-1.606-0.971-2.249s-1.641-0.965-2.982-0.965h-3.234
	v6.5h3.234c1.342,0,2.336-0.321,2.982-0.964C134.867,18.331,135.191,17.557,135.191,16.651z"/>
<path fill="#3B4144" d="M153.941,32.625h-10.605c-0.336,0-0.602-0.096-0.793-0.287c-0.193-0.191-0.289-0.456-0.289-0.792V10.901
	c0-0.384,0.096-0.672,0.289-0.863c0.191-0.191,0.457-0.288,0.793-0.288h10.605v3.688h-7.938V18.5h6.84v1.808v1.88h-6.84v6.75h7.938
	V32.625z"/>
<path fill="#3B4144" d="M173.574,16.871c0,2.782-1.271,4.868-3.812,6.259l5.111,9.495h-3.889l-5.037-9h-3.311v9h-3.75V10.901
	c0-0.336,0.107-0.611,0.324-0.827c0.215-0.216,0.467-0.324,0.756-0.324h5.902c2.496,0,4.404,0.72,5.725,2.158
	C172.914,13.348,173.574,15.002,173.574,16.871z M169.824,16.677c0-0.863-0.324-1.619-0.971-2.268
	c-0.646-0.647-1.641-0.972-2.982-0.972h-3.234v6.552h3.234c1.342,0,2.336-0.323,2.982-0.972
	C169.499,18.369,169.824,17.589,169.824,16.677z"/>
<path fill="#3B4144" d="M191.857,13.438h-5.832v19.188h-3.75V13.438h-5.76V9.75h15.342V13.438z"/>
<g>
	<path fill="#333B3F" d="M4.75,45.488c0,0.215-0.05,0.427-0.15,0.637c-0.1,0.21-0.24,0.388-0.42,0.534
		c-0.198,0.158-0.428,0.282-0.691,0.371c-0.263,0.089-0.58,0.133-0.951,0.133c-0.398,0-0.755-0.037-1.073-0.111
		c-0.317-0.074-0.64-0.184-0.969-0.33v-0.919h0.052c0.279,0.232,0.601,0.411,0.967,0.537c0.365,0.126,0.709,0.189,1.03,0.189
		c0.455,0,0.809-0.085,1.062-0.255c0.253-0.17,0.379-0.398,0.379-0.682c0-0.245-0.059-0.425-0.18-0.541
		c-0.12-0.116-0.302-0.206-0.546-0.271c-0.185-0.049-0.386-0.09-0.602-0.122c-0.216-0.032-0.445-0.073-0.688-0.122
		c-0.489-0.104-0.852-0.281-1.087-0.532c-0.236-0.251-0.354-0.578-0.354-0.98c0-0.462,0.195-0.84,0.585-1.136
		c0.39-0.295,0.886-0.442,1.486-0.442c0.388,0,0.744,0.037,1.067,0.111c0.323,0.074,0.61,0.166,0.859,0.274v0.867H4.476
		c-0.21-0.178-0.486-0.326-0.828-0.443c-0.342-0.117-0.692-0.176-1.05-0.176c-0.393,0-0.708,0.081-0.947,0.245
		c-0.239,0.163-0.358,0.373-0.358,0.63c0,0.23,0.059,0.41,0.178,0.541c0.119,0.131,0.327,0.231,0.626,0.3
		c0.158,0.035,0.383,0.077,0.674,0.126c0.292,0.049,0.539,0.1,0.741,0.152c0.41,0.109,0.719,0.273,0.926,0.493
		C4.647,44.786,4.75,45.093,4.75,45.488z"/>
	<path fill="#333B3F" d="M10.042,42.179c0.225,0.247,0.397,0.55,0.517,0.908c0.12,0.358,0.18,0.765,0.18,1.219
		c0,0.455-0.061,0.861-0.184,1.221c-0.122,0.359-0.293,0.659-0.513,0.898c-0.227,0.25-0.496,0.437-0.806,0.563
		c-0.31,0.126-0.664,0.189-1.062,0.189c-0.388,0-0.74-0.064-1.058-0.192c-0.317-0.128-0.587-0.315-0.81-0.56
		c-0.223-0.245-0.394-0.545-0.513-0.9c-0.12-0.356-0.18-0.762-0.18-1.219c0-0.45,0.059-0.853,0.178-1.21
		c0.119-0.357,0.291-0.663,0.519-0.917c0.217-0.242,0.487-0.427,0.809-0.556c0.323-0.128,0.674-0.193,1.054-0.193
		c0.396,0,0.751,0.065,1.066,0.195C9.554,41.755,9.822,41.94,10.042,42.179z M9.975,44.306c0-0.716-0.161-1.269-0.482-1.658
		c-0.321-0.389-0.76-0.583-1.315-0.583c-0.561,0-1.001,0.194-1.321,0.583c-0.32,0.389-0.48,0.942-0.48,1.658
		c0,0.724,0.163,1.278,0.489,1.662c0.326,0.384,0.763,0.576,1.312,0.576c0.548,0,0.985-0.192,1.31-0.576
		C9.812,45.584,9.975,45.03,9.975,44.306z"/>
	<path fill="#333B3F" d="M15.426,42.198h-2.79v1.556h2.397v0.652h-2.397v2.657h-0.733v-5.517h3.524V42.198z"/>
	<path fill="#333B3F" d="M20.305,42.198h-1.971v4.865H17.6v-4.865h-1.971v-0.652h4.676V42.198z"/>
	<path fill="#333B3F" d="M27.467,41.546l-1.434,5.517h-0.826l-1.16-4.58l-1.134,4.58h-0.808l-1.46-5.517h0.752l1.16,4.587
		l1.141-4.587h0.745l1.153,4.631l1.152-4.631H27.467z"/>
	<path fill="#333B3F" d="M32.717,47.063h-0.782l-0.541-1.538h-2.386l-0.541,1.538h-0.745l2.008-5.517h0.979L32.717,47.063z
		 M31.168,44.896l-0.967-2.709l-0.971,2.709H31.168z"/>
	<path fill="#333B3F" d="M38.12,47.063h-0.952l-1.845-2.193h-1.034v2.193h-0.733v-5.517H35.1c0.334,0,0.611,0.021,0.834,0.064
		c0.222,0.044,0.422,0.121,0.6,0.232c0.2,0.126,0.356,0.285,0.469,0.476c0.112,0.191,0.168,0.434,0.168,0.728
		c0,0.398-0.1,0.73-0.3,0.999c-0.2,0.268-0.476,0.47-0.827,0.606L38.12,47.063z M36.404,43.098c0-0.158-0.028-0.298-0.083-0.42
		c-0.056-0.123-0.148-0.226-0.276-0.31c-0.106-0.071-0.232-0.122-0.378-0.15c-0.146-0.028-0.317-0.042-0.515-0.042h-0.863v2.082
		h0.741c0.232,0,0.435-0.02,0.608-0.061c0.173-0.041,0.32-0.117,0.441-0.228c0.111-0.104,0.193-0.223,0.246-0.357
		C36.377,43.477,36.404,43.306,36.404,43.098z"/>
	<path fill="#333B3F" d="M42.466,47.063h-3.635v-5.517h3.635v0.652h-2.901v1.512h2.901v0.652h-2.901v2.049h2.901V47.063z"/>
	<path fill="#333B3F" d="M50.958,44.31c0,0.502-0.109,0.956-0.328,1.363c-0.219,0.408-0.51,0.724-0.873,0.949
		c-0.252,0.156-0.533,0.268-0.843,0.337c-0.31,0.069-0.718,0.104-1.225,0.104h-1.393v-5.517h1.378c0.539,0,0.966,0.039,1.284,0.117
		c0.317,0.078,0.586,0.185,0.806,0.32c0.376,0.235,0.668,0.547,0.878,0.938C50.854,43.311,50.958,43.774,50.958,44.31z
		 M50.191,44.299c0-0.432-0.075-0.797-0.226-1.093c-0.15-0.296-0.375-0.53-0.674-0.7c-0.217-0.123-0.448-0.209-0.693-0.257
		c-0.245-0.048-0.537-0.072-0.878-0.072h-0.689v4.257h0.689c0.353,0,0.661-0.026,0.924-0.078c0.263-0.052,0.504-0.148,0.725-0.289
		c0.274-0.175,0.479-0.406,0.617-0.693C50.123,45.087,50.191,44.729,50.191,44.299z"/>
	<path fill="#333B3F" d="M55.779,47.063h-3.635v-5.517h3.635v0.652h-2.901v1.512h2.901v0.652h-2.901v2.049h2.901V47.063z"/>
	<path fill="#333B3F" d="M61.293,41.546l-2.008,5.517h-0.979l-2.008-5.517h0.786l1.73,4.854l1.73-4.854H61.293z"/>
	<path fill="#333B3F" d="M65.765,47.063H62.13v-5.517h3.635v0.652h-2.901v1.512h2.901v0.652h-2.901v2.049h2.901V47.063z"/>
	<path fill="#333B3F" d="M70.419,47.063h-3.491v-5.517h0.733v4.865h2.757V47.063z"/>
	<path fill="#333B3F" d="M75.191,42.179c0.225,0.247,0.396,0.55,0.516,0.908c0.121,0.358,0.18,0.765,0.18,1.219
		c0,0.455-0.061,0.861-0.184,1.221c-0.121,0.359-0.293,0.659-0.512,0.898c-0.229,0.25-0.496,0.437-0.807,0.563
		c-0.311,0.126-0.664,0.189-1.062,0.189c-0.387,0-0.74-0.064-1.057-0.192c-0.318-0.128-0.588-0.315-0.811-0.56
		c-0.223-0.245-0.393-0.545-0.514-0.9c-0.119-0.356-0.18-0.762-0.18-1.219c0-0.45,0.061-0.853,0.178-1.21
		c0.119-0.357,0.293-0.663,0.52-0.917c0.217-0.242,0.488-0.427,0.811-0.556c0.322-0.128,0.674-0.193,1.053-0.193
		c0.396,0,0.752,0.065,1.066,0.195C74.703,41.755,74.97,41.94,75.191,42.179z M75.123,44.306c0-0.716-0.16-1.269-0.48-1.658
		c-0.322-0.389-0.76-0.583-1.316-0.583c-0.561,0-1,0.194-1.32,0.583s-0.481,0.942-0.481,1.658c0,0.724,0.164,1.278,0.49,1.662
		c0.326,0.384,0.762,0.576,1.311,0.576s0.986-0.192,1.311-0.576C74.96,45.584,75.123,45.03,75.123,44.306z"/>
	<path fill="#333B3F" d="M80.66,43.213c0,0.245-0.043,0.471-0.129,0.68c-0.086,0.209-0.205,0.39-0.357,0.543
		c-0.19,0.19-0.414,0.333-0.674,0.428c-0.26,0.095-0.588,0.143-0.982,0.143h-0.734v2.057H77.05v-5.517h1.496
		c0.332,0,0.611,0.027,0.842,0.083c0.229,0.056,0.434,0.143,0.611,0.261c0.209,0.141,0.371,0.316,0.486,0.526
		C80.601,42.626,80.66,42.892,80.66,43.213z M79.896,43.231c0-0.19-0.033-0.355-0.102-0.497c-0.066-0.141-0.168-0.255-0.303-0.344
		c-0.119-0.077-0.254-0.132-0.406-0.165c-0.152-0.033-0.344-0.05-0.576-0.05h-0.727v2.205h0.619c0.297,0,0.537-0.026,0.723-0.08
		c0.186-0.053,0.336-0.138,0.453-0.254c0.115-0.119,0.197-0.243,0.246-0.375C79.871,43.542,79.896,43.395,79.896,43.231z"/>
	<path fill="#333B3F" d="M86.539,47.063h-0.732v-4.754l-1.535,3.235h-0.438l-1.521-3.235v4.754h-0.686v-5.517h1l1.471,3.072
		l1.424-3.072h1.018V47.063z"/>
	<path fill="#333B3F" d="M91.656,47.063h-3.635v-5.517h3.635v0.652h-2.9v1.512h2.9v0.652h-2.9v2.049h2.9V47.063z"/>
	<path fill="#333B3F" d="M97.029,47.063h-0.906l-2.617-4.936v4.936H92.82v-5.517h1.139l2.385,4.505v-4.505h0.686V47.063z"/>
	<path fill="#333B3F" d="M102.431,42.198h-1.971v4.865h-0.732v-4.865h-1.973v-0.652h4.676V42.198z"/>
	<path fill="#333B3F" d="M107.144,47.516h-0.645v-7.218h0.645V47.516z"/>
	<path fill="#333B3F" d="M116.869,47.063h-0.734v-4.754l-1.533,3.235h-0.438l-1.523-3.235v4.754h-0.686v-5.517h1l1.473,3.072
		l1.422-3.072h1.02V47.063z"/>
	<path fill="#333B3F" d="M121.986,47.063h-3.635v-5.517h3.635v0.652h-2.902v1.512h2.902v0.652h-2.902v2.049h2.902V47.063z"/>
	<path fill="#333B3F" d="M127.81,44.31c0,0.502-0.109,0.956-0.328,1.363c-0.219,0.408-0.508,0.724-0.871,0.949
		c-0.252,0.156-0.533,0.268-0.844,0.337c-0.311,0.069-0.719,0.104-1.225,0.104h-1.393v-5.517h1.377c0.539,0,0.967,0.039,1.285,0.117
		c0.316,0.078,0.586,0.185,0.805,0.32c0.377,0.235,0.67,0.547,0.879,0.938C127.707,43.311,127.81,43.774,127.81,44.31z
		 M127.044,44.299c0-0.432-0.076-0.797-0.227-1.093c-0.15-0.296-0.375-0.53-0.674-0.7c-0.219-0.123-0.449-0.209-0.693-0.257
		c-0.244-0.048-0.537-0.072-0.879-0.072h-0.69v4.257h0.69c0.354,0,0.662-0.026,0.926-0.078c0.262-0.052,0.504-0.148,0.723-0.289
		c0.275-0.175,0.48-0.406,0.617-0.693C126.974,45.087,127.044,44.729,127.044,44.299z"/>
	<path fill="#333B3F" d="M130.941,47.063h-2.178V46.5h0.723v-4.391h-0.723v-0.563h2.178v0.563h-0.723V46.5h0.723V47.063z"/>
	<path fill="#333B3F" d="M136.54,47.063h-0.781l-0.541-1.538h-2.387l-0.541,1.538h-0.744l2.008-5.517h0.979L136.54,47.063z
		 M134.992,44.896l-0.967-2.709l-0.971,2.709H134.992z"/>
	<path fill="#333B3F" d="M143.98,42.198h-1.971v4.865h-0.732v-4.865h-1.973v-0.652h4.676V42.198z"/>
	<path fill="#333B3F" d="M148.357,47.063h-3.635v-5.517h3.635v0.652h-2.902v1.512h2.902v0.652h-2.902v2.049h2.902V47.063z"/>
	<path fill="#333B3F" d="M153.781,46.663c-0.135,0.06-0.258,0.115-0.367,0.167c-0.111,0.052-0.254,0.106-0.432,0.163
		c-0.152,0.047-0.314,0.087-0.492,0.12c-0.176,0.034-0.371,0.05-0.584,0.05c-0.398,0-0.764-0.056-1.09-0.168
		c-0.328-0.113-0.613-0.289-0.855-0.528c-0.236-0.234-0.422-0.533-0.555-0.895c-0.133-0.362-0.201-0.783-0.201-1.262
		c0-0.455,0.065-0.861,0.193-1.219c0.129-0.358,0.314-0.661,0.557-0.908c0.234-0.24,0.518-0.422,0.85-0.548s0.701-0.189,1.105-0.189
		c0.297,0,0.594,0.036,0.889,0.107c0.295,0.071,0.623,0.198,0.982,0.378v0.871h-0.055c-0.305-0.254-0.606-0.439-0.904-0.556
		c-0.299-0.116-0.619-0.174-0.959-0.174c-0.279,0-0.531,0.045-0.754,0.135c-0.225,0.09-0.424,0.23-0.6,0.42
		c-0.17,0.186-0.303,0.419-0.398,0.702c-0.094,0.283-0.143,0.61-0.143,0.98c0,0.388,0.053,0.721,0.158,1.001
		c0.105,0.279,0.24,0.506,0.406,0.682c0.172,0.183,0.375,0.318,0.605,0.406c0.23,0.087,0.475,0.131,0.73,0.131
		c0.354,0,0.686-0.061,0.994-0.182c0.309-0.121,0.598-0.302,0.867-0.544h0.051V46.663z"/>
	<path fill="#333B3F" d="M159.04,47.063h-0.734v-2.701h-2.754v2.701h-0.732v-5.517h0.732v2.164h2.754v-2.164h0.734V47.063z"/>
	<path fill="#333B3F" d="M164.73,47.063h-0.906l-2.617-4.936v4.936h-0.686v-5.517h1.139l2.385,4.505v-4.505h0.686V47.063z"/>
	<path fill="#333B3F" d="M170.312,42.179c0.225,0.247,0.396,0.55,0.516,0.908c0.121,0.358,0.18,0.765,0.18,1.219
		c0,0.455-0.061,0.861-0.184,1.221c-0.121,0.359-0.293,0.659-0.512,0.898c-0.229,0.25-0.496,0.437-0.807,0.563
		c-0.311,0.126-0.664,0.189-1.062,0.189c-0.387,0-0.74-0.064-1.057-0.192c-0.318-0.128-0.588-0.315-0.811-0.56
		c-0.223-0.245-0.393-0.545-0.514-0.9c-0.119-0.356-0.18-0.762-0.18-1.219c0-0.45,0.061-0.853,0.178-1.21
		c0.119-0.357,0.293-0.663,0.519-0.917c0.217-0.242,0.488-0.427,0.811-0.556c0.322-0.128,0.674-0.193,1.053-0.193
		c0.396,0,0.752,0.065,1.066,0.195C169.824,41.755,170.091,41.94,170.312,42.179z M170.244,44.306c0-0.716-0.16-1.269-0.48-1.658
		c-0.322-0.389-0.76-0.583-1.316-0.583c-0.561,0-1,0.194-1.32,0.583s-0.48,0.942-0.48,1.658c0,0.724,0.164,1.278,0.49,1.662
		c0.326,0.384,0.762,0.576,1.311,0.576s0.986-0.192,1.311-0.576C170.082,45.584,170.244,45.03,170.244,44.306z"/>
	<path fill="#333B3F" d="M175.662,47.063h-3.49v-5.517h0.732v4.865h2.758V47.063z"/>
	<path fill="#333B3F" d="M180.441,42.179c0.225,0.247,0.396,0.55,0.516,0.908c0.121,0.358,0.18,0.765,0.18,1.219
		c0,0.455-0.061,0.861-0.184,1.221c-0.121,0.359-0.293,0.659-0.512,0.898c-0.229,0.25-0.496,0.437-0.807,0.563
		c-0.311,0.126-0.664,0.189-1.062,0.189c-0.387,0-0.74-0.064-1.057-0.192c-0.318-0.128-0.588-0.315-0.811-0.56
		c-0.223-0.245-0.393-0.545-0.514-0.9c-0.119-0.356-0.18-0.762-0.18-1.219c0-0.45,0.061-0.853,0.178-1.21
		c0.119-0.357,0.293-0.663,0.52-0.917c0.217-0.242,0.488-0.427,0.811-0.556c0.322-0.128,0.674-0.193,1.053-0.193
		c0.396,0,0.752,0.065,1.066,0.195C179.953,41.755,180.22,41.94,180.441,42.179z M180.373,44.306c0-0.716-0.16-1.269-0.48-1.658
		c-0.322-0.389-0.76-0.583-1.316-0.583c-0.561,0-1,0.194-1.32,0.583s-0.48,0.942-0.48,1.658c0,0.724,0.164,1.278,0.49,1.662
		c0.326,0.384,0.762,0.576,1.311,0.576s0.986-0.192,1.311-0.576C180.21,45.584,180.373,45.03,180.373,44.306z"/>
	<path fill="#333B3F" d="M186.902,46.655c-0.301,0.139-0.631,0.259-0.988,0.361c-0.355,0.103-0.701,0.154-1.035,0.154
		c-0.43,0-0.824-0.059-1.182-0.178c-0.357-0.119-0.664-0.296-0.916-0.534c-0.254-0.24-0.451-0.539-0.588-0.898
		c-0.139-0.359-0.209-0.78-0.209-1.262c0-0.882,0.258-1.578,0.773-2.088c0.516-0.51,1.223-0.765,2.121-0.765
		c0.314,0,0.635,0.038,0.961,0.113c0.328,0.075,0.682,0.203,1.059,0.384v0.871h-0.066c-0.076-0.06-0.187-0.137-0.334-0.233
		c-0.145-0.097-0.289-0.177-0.43-0.241c-0.17-0.076-0.363-0.14-0.58-0.19c-0.217-0.051-0.461-0.076-0.734-0.076
		c-0.619,0-1.107,0.198-1.467,0.595c-0.359,0.396-0.539,0.933-0.539,1.61c0,0.714,0.188,1.269,0.564,1.666
		c0.375,0.396,0.887,0.595,1.533,0.595c0.236,0,0.475-0.023,0.709-0.07c0.236-0.047,0.443-0.108,0.621-0.182v-1.352h-1.479v-0.645
		h2.205V46.655z"/>
	<path fill="#333B3F" d="M192.089,41.546l-1.941,3.098v2.419h-0.734v-2.342l-1.949-3.175h0.812l1.508,2.468l1.521-2.468H192.089z"/>
</g>
</svg>
