<svg xmlns="http://www.w3.org/2000/svg" viewBox="0 0 179.32 49.94"><defs><style>.cls-1{fill:#575756;}.cls-2{fill:#95c11f;}.cls-3{fill:#07a5dd;}</style></defs><title>phpruhr_logo_claim_2018</title><g id="Ebene_1" data-name="Ebene 1"><path class="cls-1" d="M10.17,55.81l-1.52-11h1.89l.69,7.28.94-7.28H13.8l.92,7.23.72-7.23h1.9l-1.54,11H13.9L13,48.61l-.91,7.2Z" transform="translate(-8.65 -6.09)"/><path class="cls-1" d="M18.87,55.81v-11h4.59v1.52H21.09v3h1.68V50.9H21.09v3.38h2.37v1.53Z" transform="translate(-8.65 -6.09)"/><path class="cls-1" d="M25,55.81v-11h2.27a8.49,8.49,0,0,1,1.07.06,3.69,3.69,0,0,1,.92.25,2,2,0,0,1,.74.5,2.23,2.23,0,0,1,.46.82,3.63,3.63,0,0,1,.18,1.21A2.07,2.07,0,0,1,30.23,49a2.67,2.67,0,0,1-1.26.78,2.51,2.51,0,0,1,2,2.78A3.34,3.34,0,0,1,30.14,55a3.35,3.35,0,0,1-2.43.79Zm2.21-6.67h.38A1,1,0,0,0,28.1,49a.71.71,0,0,0,.32-.34,1.73,1.73,0,0,0,.15-.47,3.74,3.74,0,0,0,0-.61,2.33,2.33,0,0,0,0-.48,3.46,3.46,0,0,0-.09-.35.53.53,0,0,0-.16-.23l-.21-.14a1,1,0,0,0-.27-.07l-.29,0h-.34Zm0,5.1h.21a2,2,0,0,0,.7-.1.75.75,0,0,0,.41-.35,1.38,1.38,0,0,0,.19-.55,6.09,6.09,0,0,0,0-.83,2.47,2.47,0,0,0-.3-1.33,1.11,1.11,0,0,0-1-.48h-.22Z" transform="translate(-8.65 -6.09)"/><path class="cls-1" d="M36,55.81v-11h2.29a7.1,7.1,0,0,1,1.82.19,2.28,2.28,0,0,1,1.11.66,2.53,2.53,0,0,1,.57,1.09,7.19,7.19,0,0,1,.15,1.62V52a10.2,10.2,0,0,1,0,1,6.15,6.15,0,0,1-.13.86,2.57,2.57,0,0,1-.28.71,2.23,2.23,0,0,1-.45.54,2,2,0,0,1-.66.39,4.16,4.16,0,0,1-.91.23,8.51,8.51,0,0,1-1.2.08Zm2.31-1.56h.5a2.2,2.2,0,0,0,.36,0,.73.73,0,0,0,.27-.1.77.77,0,0,0,.16-.19.83.83,0,0,0,.1-.29c0-.11,0-.25,0-.42V47.28a.74.74,0,0,0-.33-.72,2.33,2.33,0,0,0-1.08-.18Z" transform="translate(-8.65 -6.09)"/><path class="cls-1" d="M43.83,55.81v-11h4.59v1.52H46.05v3h1.67V50.9H46.05v3.38h2.37v1.53Z" transform="translate(-8.65 -6.09)"/><path class="cls-1" d="M51.4,55.81l-2-11h2.11l1,6.66,1.07-6.66h2.08l-2.18,11Z" transform="translate(-8.65 -6.09)"/><path class="cls-1" d="M57.09,55.81v-11h4.58v1.52H59.31v3H61V50.9H59.31v3.38h2.36v1.53Z" transform="translate(-8.65 -6.09)"/><path class="cls-1" d="M63.22,55.81v-11h2.22v9.46h2.19v1.53Z" transform="translate(-8.65 -6.09)"/><path class="cls-1" d="M69,52.19V48.5q0-3.9,3.21-3.9t3.22,3.9v3.64a6.7,6.7,0,0,1-.1,1.22A4.35,4.35,0,0,1,75,54.42a3.1,3.1,0,0,1-.6.85,2.53,2.53,0,0,1-.92.55,4.1,4.1,0,0,1-2.53,0,2.56,2.56,0,0,1-.92-.53,3,3,0,0,1-.6-.83,4.14,4.14,0,0,1-.33-1.05A6.62,6.62,0,0,1,69,52.19Zm4.2.5V47.94q0-1.62-1-1.62a.85.85,0,0,0-.51.15.79.79,0,0,0-.3.41,2.42,2.42,0,0,0-.14.51,3.16,3.16,0,0,0,0,.55v4.75q0,1.62,1,1.62T73.15,52.69Z" transform="translate(-8.65 -6.09)"/><path class="cls-1" d="M77.3,55.81v-11H80a2.51,2.51,0,0,1,2.09.8,3.53,3.53,0,0,1,.65,2.31,5,5,0,0,1-.14,1.3,2.67,2.67,0,0,1-.4.9,2,2,0,0,1-.66.58,3.2,3.2,0,0,1-.87.3,6.87,6.87,0,0,1-1.09.1v4.7Zm2.24-6.27.31,0,.24-.05a.69.69,0,0,0,.19-.1l.13-.13a.74.74,0,0,0,.09-.18c0-.09,0-.15,0-.21s0-.14,0-.25,0-.22,0-.29v-.42a3.44,3.44,0,0,0,0-.36,1.84,1.84,0,0,0,0-.31.91.91,0,0,0-.06-.29,1.48,1.48,0,0,0-.11-.22.39.39,0,0,0-.19-.17,1.11,1.11,0,0,0-.28-.1,1.48,1.48,0,0,0-.38,0Z" transform="translate(-8.65 -6.09)"/><path class="cls-1" d="M84.29,55.81v-11H87l1.17,7.32,1.27-7.32H92v11H90.32l0-7.73c-.12.79-.33,2.08-.64,3.86S89.11,55,89,55.81H87.33L86,48l0,7.78Z" transform="translate(-8.65 -6.09)"/><path class="cls-1" d="M94,55.81v-11H98.6v1.52H96.24v3h1.67V50.9H96.24v3.38H98.6v1.53Z" transform="translate(-8.65 -6.09)"/><path class="cls-1" d="M100.15,55.81v-11h1.6l2.41,5.75V44.81H106v11h-1.54l-2.41-6.1v6.1Z" transform="translate(-8.65 -6.09)"/><path class="cls-1" d="M109.11,55.81V46.48H107.5V44.82h5.41v1.66h-1.58v9.33Z" transform="translate(-8.65 -6.09)"/><path class="cls-1" d="M117.52,52.14V48.5q0-3.9,3.18-3.9a3.69,3.69,0,0,1,1.2.18,2.6,2.6,0,0,1,.88.5,2.56,2.56,0,0,1,.58.78,4.13,4.13,0,0,1,.33,1,6.33,6.33,0,0,1,.1,1.2v.94H121.6v-1c0-.2,0-.37,0-.52s0-.31-.06-.49a2.2,2.2,0,0,0-.14-.45.77.77,0,0,0-.27-.3.7.7,0,0,0-.42-.12q-1,0-1,1.62v4.75q0,1.62,1,1.62a.73.73,0,0,0,.49-.17.91.91,0,0,0,.28-.47,4.08,4.08,0,0,0,.11-.59,6.38,6.38,0,0,0,0-.66V51.29h2.18v.93a8.22,8.22,0,0,1-.1,1.16,4.73,4.73,0,0,1-.32,1,2.68,2.68,0,0,1-.56.85,2.36,2.36,0,0,1-.87.55,3.39,3.39,0,0,1-1.24.21,3.55,3.55,0,0,1-1.26-.2,2.51,2.51,0,0,1-1.5-1.4,4,4,0,0,1-.33-1.06A7.68,7.68,0,0,1,117.52,52.14Z" transform="translate(-8.65 -6.09)"/><path class="cls-1" d="M125.44,52.19V48.5q0-3.9,3.21-3.9t3.22,3.9v3.64a6.7,6.7,0,0,1-.1,1.22,4.35,4.35,0,0,1-.33,1.06,3.1,3.1,0,0,1-.6.85,2.53,2.53,0,0,1-.92.55,4.1,4.1,0,0,1-2.53,0,2.65,2.65,0,0,1-.92-.53,3,3,0,0,1-.6-.83,4.14,4.14,0,0,1-.33-1.05A6.62,6.62,0,0,1,125.44,52.19Zm4.21.5V47.94c0-1.08-.34-1.62-1-1.62a.85.85,0,0,0-.51.15.79.79,0,0,0-.3.41,2.42,2.42,0,0,0-.14.51,3.16,3.16,0,0,0,0,.55v4.75q0,1.62,1,1.62C129.31,54.31,129.65,53.77,129.65,52.69Z" transform="translate(-8.65 -6.09)"/><path class="cls-1" d="M133.79,55.81v-11h1.6l2.41,5.75V44.81h1.84v11H138.1l-2.4-6.1v6.1Z" transform="translate(-8.65 -6.09)"/><path class="cls-1" d="M141.7,55.81v-11h4.59v1.52h-2.37v3h1.68V50.9h-1.68v4.91Z" transform="translate(-8.65 -6.09)"/><path class="cls-1" d="M147.68,55.81v-11h4.59v1.52H149.9v3h1.68V50.9H149.9v3.38h2.37v1.53Z" transform="translate(-8.65 -6.09)"/><path class="cls-1" d="M153.81,55.81v-11h2.42a6.27,6.27,0,0,1,1.45.15,3.24,3.24,0,0,1,1.1.49,2.06,2.06,0,0,1,.71.9,3.42,3.42,0,0,1,.25,1.35,5.53,5.53,0,0,1,0,.61,4,4,0,0,1-.11.61,2.67,2.67,0,0,1-.24.62,2.54,2.54,0,0,1-.44.52,2.72,2.72,0,0,1-.68.43q1,3.14,1.72,5.31h-2.3l-1.26-5.06H156v5.06ZM156,49.39h.64a.64.64,0,0,0,.44-.17.94.94,0,0,0,.26-.43,2.67,2.67,0,0,0,.12-.49,2.93,2.93,0,0,0,0-.41,2.88,2.88,0,0,0,0-.41,3.53,3.53,0,0,0-.1-.46,1,1,0,0,0-.23-.41.54.54,0,0,0-.4-.16H156Z" transform="translate(-8.65 -6.09)"/><path class="cls-1" d="M161.41,55.81v-11H166v1.52h-2.36v3h1.67V50.9h-1.67v3.38H166v1.53Z" transform="translate(-8.65 -6.09)"/><path class="cls-1" d="M167.55,55.81v-11h1.6l2.41,5.75V44.81h1.84v11h-1.54l-2.4-6.1v6.1Z" transform="translate(-8.65 -6.09)"/><path class="cls-1" d="M175.32,52.14V48.5q0-3.9,3.19-3.9a3.63,3.63,0,0,1,1.19.18,2.6,2.6,0,0,1,.88.5,2.56,2.56,0,0,1,.58.78,4.13,4.13,0,0,1,.33,1,6.33,6.33,0,0,1,.1,1.2v.94h-2.18v-1c0-.2,0-.37,0-.52a3.25,3.25,0,0,0-.06-.49,1.41,1.41,0,0,0-.14-.45.83.83,0,0,0-.26-.3.74.74,0,0,0-.42-.12c-.65,0-1,.54-1,1.62v4.75c0,1.08.32,1.62,1,1.62a.72.72,0,0,0,.48-.17.91.91,0,0,0,.28-.47,3.09,3.09,0,0,0,.12-.59,6.38,6.38,0,0,0,0-.66V51.29h2.17v.93a8.22,8.22,0,0,1-.1,1.16,4.7,4.7,0,0,1-.31,1,3.06,3.06,0,0,1-.56.85,2.49,2.49,0,0,1-.88.55,3.37,3.37,0,0,1-1.23.21,3.57,3.57,0,0,1-1.27-.2,2.63,2.63,0,0,1-.91-.55,2.8,2.8,0,0,1-.59-.85,4.83,4.83,0,0,1-.33-1.06A7.68,7.68,0,0,1,175.32,52.14Z" transform="translate(-8.65 -6.09)"/><path class="cls-1" d="M183.38,55.81v-11H188v1.52H185.6v3h1.68V50.9H185.6v3.38H188v1.53Z" transform="translate(-8.65 -6.09)"/><path class="cls-2" d="M105.64,40V7.73h7.1a17.57,17.57,0,0,1,4.27.46,9.44,9.44,0,0,1,3.22,1.43,6,6,0,0,1,2.09,2.64,10,10,0,0,1,.72,4c0,.67,0,1.27-.07,1.8a11.23,11.23,0,0,1-.33,1.8,6.9,6.9,0,0,1-.71,1.79,6.55,6.55,0,0,1-1.29,1.54,7.4,7.4,0,0,1-2,1.25q2.91,9.22,5.06,15.61h-6.77l-3.69-14.87h-1.08V40Zm6.53-18.85H114a1.81,1.81,0,0,0,1.29-.51,2.85,2.85,0,0,0,.78-1.27,10.3,10.3,0,0,0,.34-1.42,7.52,7.52,0,0,0,.1-1.22,9.75,9.75,0,0,0-.08-1.18,10.81,10.81,0,0,0-.29-1.36A2.85,2.85,0,0,0,115.5,13a1.6,1.6,0,0,0-1.16-.47h-2.17Z" transform="translate(-8.65 -6.09)"/><path class="cls-2" d="M125.62,28V7.73h6.54V27.82c0,1.15,0,2,0,2.51s.05,1.15.09,1.9a6.32,6.32,0,0,0,.25,1.57,9.07,9.07,0,0,0,.5,1,1.5,1.5,0,0,0,.82.68,3.92,3.92,0,0,0,1.22.16,3.86,3.86,0,0,0,1.21-.16,1.51,1.51,0,0,0,.83-.68,7.89,7.89,0,0,0,.49-1,5.86,5.86,0,0,0,.25-1.56q.07-1.09.09-1.86c0-.51,0-1.33,0-2.47V7.73h6.53V28c0,1,0,2-.09,2.8a22.28,22.28,0,0,1-.33,2.6,11.78,11.78,0,0,1-.69,2.38,9.58,9.58,0,0,1-1.14,2,6.46,6.46,0,0,1-1.7,1.56,8.68,8.68,0,0,1-2.36,1,13.57,13.57,0,0,1-6.21,0,8.6,8.6,0,0,1-2.35-1,6.54,6.54,0,0,1-1.68-1.56,8.8,8.8,0,0,1-1.15-2,11.78,11.78,0,0,1-.69-2.38,22.5,22.5,0,0,1-.36-2.6C125.66,30,125.62,29.05,125.62,28Z" transform="translate(-8.65 -6.09)"/><path class="cls-2" d="M148.16,40V7.73h6.53V21h4.68V7.73h6.57V40h-6.57V25.62h-4.68V40Z" transform="translate(-8.65 -6.09)"/><path class="cls-2" d="M169.78,40V7.73h7.11a17.54,17.54,0,0,1,4.26.46,9.31,9.31,0,0,1,3.21,1.43,6.08,6.08,0,0,1,2.11,2.64,10.13,10.13,0,0,1,.71,4c0,.67,0,1.27-.07,1.8a11.23,11.23,0,0,1-.33,1.8,7.27,7.27,0,0,1-.71,1.79,6.55,6.55,0,0,1-1.29,1.54,7.4,7.4,0,0,1-2,1.25q2.9,9.22,5.06,15.61h-6.77l-3.69-14.87h-1.08V40Zm6.53-18.85h1.87a1.81,1.81,0,0,0,1.29-.51,2.85,2.85,0,0,0,.78-1.27,10.3,10.3,0,0,0,.34-1.42,7.52,7.52,0,0,0,.1-1.22,9.75,9.75,0,0,0-.08-1.18,10.81,10.81,0,0,0-.29-1.36,2.85,2.85,0,0,0-.68-1.22,1.6,1.6,0,0,0-1.16-.47h-2.17Z" transform="translate(-8.65 -6.09)"/><path class="cls-3" d="M28.62,40V8h6.49V21.11h5.41V8h6.53V40H40.52V25.73H35.11V40Z" transform="translate(-8.65 -6.09)"/><path class="cls-3" d="M24.56,10.29C23.16,8.73,20.33,8,17.27,8H8.77V40h7.15V26.32A23.13,23.13,0,0,0,19.4,26a14.9,14.9,0,0,0,3.4-.89,6.07,6.07,0,0,0,2.11-1.68,7.79,7.79,0,0,0,1.28-2.65,14,14,0,0,0,.46-3.77C26.65,14.09,26,11.85,24.56,10.29ZM20.28,18a10.07,10.07,0,0,1-.34,1.4,2.79,2.79,0,0,1-.78,1.27,1.81,1.81,0,0,1-1.28.5H16V12.58h2.16a1.54,1.54,0,0,1,1.14.48,2.63,2.63,0,0,1,.68,1.2,9.29,9.29,0,0,1,.29,1.36,9.41,9.41,0,0,1,.07,1.17A8.74,8.74,0,0,1,20.28,18Z" transform="translate(-8.65 -6.09)"/><path class="cls-3" d="M66,10.29C64.58,8.73,61.75,8,58.68,8H50.19V40h7.15V26.32A23.1,23.1,0,0,0,60.81,26a14.85,14.85,0,0,0,3.41-.89,6,6,0,0,0,2.1-1.68,7.44,7.44,0,0,0,1.28-2.65,13.6,13.6,0,0,0,.46-3.77C68.06,14.09,67.36,11.85,66,10.29ZM61.7,18a10.21,10.21,0,0,1-.35,1.4,2.86,2.86,0,0,1-.77,1.27,1.84,1.84,0,0,1-1.28.5H57.44V12.58H59.6a1.55,1.55,0,0,1,1.15.48,2.61,2.61,0,0,1,.67,1.2,9.29,9.29,0,0,1,.29,1.36,9.46,9.46,0,0,1,.08,1.17A8.74,8.74,0,0,1,61.7,18Z" transform="translate(-8.65 -6.09)"/><path class="cls-2" d="M78.24,14.44a6.82,6.82,0,0,0,1,2s2.84,3.77,6.2,0a6.82,6.82,0,0,0,1-2s.65-.31.56-1.77v-.5s-.17-.26-.31.16c0,0,.52-4-1.33-5.23,0,0-.73-.93-3-1-2.24.08-3,1-3,1C77.47,8.33,78,12.33,78,12.33c-.14-.42-.31-.16-.31-.16v.5C77.59,14.13,78.24,14.44,78.24,14.44Z" transform="translate(-8.65 -6.09)"/><polygon class="cls-2" points="79.23 14.45 79.11 14.45 75.2 28.63 74.55 16.93 75.34 16.15 73.64 14.45 71.94 16.15 72.72 16.94 72.07 28.63 68.17 14.45 68.04 14.45 61.39 18.93 61.39 33.92 66.14 33.92 66.14 27.92 66.63 27.92 66.63 33.92 80.65 33.92 80.65 27.62 81.13 27.62 81.13 33.92 85.88 33.92 85.88 18.93 79.23 14.45"/><path class="cls-2" d="M97.45,40V34.69h5.47V40Z" transform="translate(-8.65 -6.09)"/></g></svg>