<?xml version="1.0" encoding="utf-8"?>
<!-- Generator: Adobe Illustrator 21.0.0, SVG Export Plug-In . SVG Version: 6.00 Build 0)  -->
<svg version="1.1" id="Слой_1" xmlns="http://www.w3.org/2000/svg" xmlns:xlink="http://www.w3.org/1999/xlink" x="0px" y="0px"
	 viewBox="0 0 379.3 118.6" style="enable-background:new 0 0 379.3 118.6;" xml:space="preserve">
<style type="text/css">
	.st0{fill-rule:evenodd;clip-rule:evenodd;fill:url(#SVGID_1_);}
	.st1{fill:url(#SVGID_2_);}
	.st2{fill:url(#SVGID_3_);}
	.st3{fill:#F3F3F3;}
	.st4{fill:#D32328;}
</style>
<g>
	
		<linearGradient id="SVGID_1_" gradientUnits="userSpaceOnUse" x1="30.6361" y1="34.3112" x2="115.534" y2="34.3112" gradientTransform="matrix(1 0 0 1 -21.7821 20.6947)">
		<stop  offset="0" style="stop-color:#A4A7A9"/>
		<stop  offset="0.4547" style="stop-color:#B9BBBD"/>
		<stop  offset="1" style="stop-color:#68696C"/>
	</linearGradient>
	<path class="st0" d="M51.3,12.5c23.4,0,42.4,19,42.4,42.5s-19,42.5-42.4,42.5S8.9,78.5,8.9,55S27.9,12.5,51.3,12.5z"/>
	<g>
		
			<linearGradient id="SVGID_2_" gradientUnits="userSpaceOnUse" x1="51.9392" y1="-13.0528" x2="87.4996" y2="48.5396" gradientTransform="matrix(1 0 0 1 -21.7821 20.6947)">
			<stop  offset="0" style="stop-color:#EE5525"/>
			<stop  offset="0.4547" style="stop-color:#E21E26"/>
			<stop  offset="1" style="stop-color:#89181A"/>
		</linearGradient>
		<path class="st1" d="M59.3,0C26.6,0,0,26.6,0,59.3c0,5.9,0.9,11.6,2.5,16.9c8,1.6,16.2,2.5,24.6,2.5c9.5,0,18.8-1.1,27.7-3.1
			l51.9-51.9C95.9,9.3,78.7,0,59.3,0z"/>
		
			<linearGradient id="SVGID_3_" gradientUnits="userSpaceOnUse" x1="112.2453" y1="89.1075" x2="88.4925" y2="47.9663" gradientTransform="matrix(1 0 0 1 -21.7821 20.6947)">
			<stop  offset="0" style="stop-color:#EE5525"/>
			<stop  offset="0.4547" style="stop-color:#E21E26"/>
			<stop  offset="1" style="stop-color:#89181A"/>
		</linearGradient>
		<path class="st2" d="M115.6,40.8c-16.2,17-37.2,29.3-60.9,34.8l-31.1,31.1c9.9,7.5,22.3,11.9,35.7,11.9
			c32.8,0,59.3-26.6,59.3-59.3C118.6,52.8,117.6,46.6,115.6,40.8z"/>
	</g>
	<g>
		<path class="st3" d="M24.8,48.9c0.1,0,0.3,0,0.4-0.1c0.3-0.1,0.5-0.1,0.8-0.2c0.1,0,0.2,0,0.2-0.1c0.3-0.1,0.6-0.2,0.8-0.3
			c0,0,0.1,0,0.1,0c4.3-2,5.7-6.9,6.1-9.6c0.5-3.5-2-8.1-7.4-8.1h0l0,0H14.1L9.3,56.2h4.6h1.1h0l1.3-7h6.4h0c0.1,0,0.2,0,0.3,0
			c0.3,0,0.7,0,1-0.1C24.3,49,24.5,49,24.8,48.9z M17,45.2l2-10.6h4.4c4.3,0,4.5,2.6,4.2,4.6c-0.3,2-1.7,6-6.2,6H17z"/>
		<path class="st3" d="M72.3,31.3L72.3,31.3C72.3,31.3,72.3,31.3,72.3,31.3c-0.2-0.1-0.3-0.2-0.5-0.2c-0.1-0.1-0.2-0.1-0.4-0.2
			c-0.1-0.1-0.3-0.1-0.5-0.1c-0.1,0-0.3-0.1-0.4-0.1c-0.2,0-0.4-0.1-0.6-0.1c-0.1,0-0.2,0-0.4-0.1c-0.3,0-0.6,0-0.9-0.1
			c0,0-0.1,0-0.1,0H57v0h0l-3.4,18.2l0,0l-1.4,7.5h4.5h1.1h0l1.3-7h6.5h0c0.5,0,0.9,0,1.3-0.1c0.1,0,0.3,0,0.4-0.1
			c0.3,0,0.6-0.1,0.8-0.1c0.2,0,0.3-0.1,0.4-0.1c0.2-0.1,0.5-0.1,0.7-0.2c0.1-0.1,0.3-0.1,0.4-0.2c0.2-0.1,0.4-0.2,0.6-0.3
			c0.1-0.1,0.3-0.1,0.4-0.2c0.2-0.1,0.4-0.2,0.5-0.3c0.1-0.1,0.2-0.2,0.3-0.2c0.2-0.1,0.3-0.3,0.5-0.4c0.1-0.1,0.2-0.2,0.3-0.3
			c0.2-0.1,0.3-0.3,0.4-0.5c0.1-0.1,0.2-0.2,0.2-0.3c0,0,0,0,0,0l0,0c2-2.3,2.8-5.4,3-7.3C76.5,36,75.2,32.8,72.3,31.3z M59.9,45.2
			l2-10.6h4.4c4.3,0,4.5,2.6,4.2,4.6c-0.3,1.8-1.5,5.2-5,5.8c-0.4,0.1-0.8,0.1-1.2,0.1H59.9z"/>
		<path class="st3" d="M48.2,30.6c-2.3,0-5.3,0-6.8,0l1.3-6.9h-5.6l-4.7,25.7H38l2.7-14.8c1,0,2.3,0,3.6,0c2.4,0,4,0.5,3.6,2.7
			s-2.3,11.9-2.3,11.9h5.7c0,0,2.2-10.8,2.5-13.9C54.2,32.3,51.4,30.6,48.2,30.6z"/>
	</g>
	<g>
		<g>
			<path class="st4" d="M142.9,55.8V21.4h15.4c8.5,0,13.8,4.4,13.8,12.1s-5.3,12.1-13.8,12.1h-7.4v10.3H142.9z M150.9,28.3v10.2h7.4
				c3.9,0,5.7-1.9,5.7-5.1c0-3.2-1.9-5.1-5.7-5.1H150.9z"/>
			<path class="st4" d="M197.1,21.4h8v34.5h-8V41.7h-15v14.1h-8V21.4h8v13.4h15V21.4z"/>
			<path class="st4" d="M209.4,55.8V21.4h15.4c8.5,0,13.8,4.4,13.8,12.1s-5.3,12.1-13.8,12.1h-7.4v10.3H209.4z M217.4,28.3v10.2h7.4
				c3.9,0,5.7-1.9,5.7-5.1c0-3.2-1.9-5.1-5.7-5.1H217.4z"/>
			<path d="M252.8,55.8V21.4h15c6.5,0,10.6,3.9,10.6,9.9c0,5.4-3.8,9.1-8.7,9.7l8.7,14.8h-3.9l-8.6-14.6h-9.5v14.6H252.8z
				 M256.4,24.5v13.6h11.5c4.8,0,7-2.8,7-6.8s-2.2-6.8-7-6.8H256.4z"/>
			<path d="M299.8,55.8v-4c-0.9,2-3,4.4-7.3,4.4c-6.9,0-10.7-4.2-10.7-11.2V31.7h3.4v13.5c0,4.9,2.1,8.4,7.3,8.4s7.3-3.4,7.3-8.4
				V31.7h3.4v24.2H299.8z"/>
			<path d="M322.9,35.8c-1.8-1.1-4.2-1.7-7.1-1.7c-3.6,0-5.7,1.5-5.7,3.7c0,2,1.7,3.3,6.3,4.1c6.4,1.2,9.7,2.9,9.7,7.5
				c0,4.6-4.2,6.9-9.6,6.9c-4,0-7.8-0.9-10.4-3l1.7-2.4c2.7,1.7,5.3,2.5,8.7,2.5c3.4,0,6.2-1.3,6.2-4.1c0-2.7-1.9-3.7-6.8-4.6
				c-6.8-1.3-9.3-3.5-9.3-7c0-3.6,2.9-6.5,9.2-6.5c3.6,0,6.7,0.7,8.8,2.2L322.9,35.8z"/>
			<path d="M344.3,35.8c-1.8-1.1-4.2-1.7-7.1-1.7c-3.6,0-5.7,1.5-5.7,3.7c0,2,1.7,3.3,6.3,4.1c6.4,1.2,9.7,2.9,9.7,7.5
				c0,4.6-4.2,6.9-9.6,6.9c-4,0-7.8-0.9-10.4-3l1.7-2.4c2.7,1.7,5.3,2.5,8.7,2.5c3.4,0,6.2-1.3,6.2-4.1c0-2.7-1.9-3.7-6.8-4.6
				c-6.8-1.3-9.3-3.5-9.3-7c0-3.6,2.9-6.5,9.2-6.5c3.6,0,6.7,0.7,8.8,2.2L344.3,35.8z"/>
			<path d="M352.6,22.4c1.3,0,2.3,1,2.3,2.3c0,1.3-1,2.3-2.3,2.3s-2.3-1-2.3-2.3C350.3,23.4,351.3,22.4,352.6,22.4z M350.9,31.7h3.4
				v24.2h-3.4V31.7z"/>
			<path d="M361.9,36.1l-1.4-2.5c2.3-1.5,5.7-2.3,9.2-2.3c8.6,0,9.6,4.4,9.6,10.4v14.2h-3.4v-4.6c-1.3,3.1-3.9,5.1-8.3,5.1
				c-5.6,0-9.4-2.5-9.4-7.8c0-8.3,10.7-9,17.7-8.1c-0.1-3.9-0.6-6.4-6.2-6.4C367.3,34,364.1,34.8,361.9,36.1z M367.6,53.5
				c5.7,0,8.3-3.8,8.3-8v-2.6c-5.8-0.7-14.2,0-14.2,5.6C361.7,51.3,363.5,53.5,367.6,53.5z"/>
		</g>
	</g>
	<g>
		<g>
			<path class="st4" d="M170.1,81.3c0,7.4-4.3,13.9-14.2,13.9s-14.2-6.5-14.2-13.9s4.3-13.9,14.2-13.9S170.1,73.9,170.1,81.3z
				 M147.9,81.3c0,4.8,2.4,8.6,7.9,8.6s7.9-3.7,7.9-8.6c0-4.8-2.4-8.6-7.9-8.6S147.9,76.4,147.9,81.3z"/>
			<path class="st4" d="M177.2,94.4h-6V75.5h6v2c1.1-1.7,2.7-2.6,5-2.6c6.3,0,8.7,3.6,8.7,9.7v9.8h-6v-9.8c0-3.1-0.9-5-3.9-5
				c-2.9,0-3.9,1.9-3.9,5V94.4z"/>
			<path class="st4" d="M192.7,66.6h6v20.1c0,1.5,0,3.1,1.5,3.1h0.7v4.6H199c-6.3,0-6.3-4.7-6.3-7.2V66.6z"/>
			<path class="st4" d="M205.2,66.8c1.7,0,3.2,1.4,3.2,3.2s-1.4,3.2-3.2,3.2c-1.7,0-3.2-1.4-3.2-3.2S203.4,66.8,205.2,66.8z
				 M202.1,75.5h6v18.9h-6V75.5z"/>
			<path class="st4" d="M216.1,94.4h-6V75.5h6v2c1.1-1.7,2.7-2.6,5-2.6c6.3,0,8.7,3.6,8.7,9.7v9.8h-6v-9.8c0-3.1-0.9-5-3.9-5
				c-2.9,0-3.9,1.9-3.9,5V94.4z"/>
			<path class="st4" d="M250.4,92.2c-2,1.6-4.8,2.8-9,2.8c-7.6,0-10.5-4.8-10.5-10c0-5.2,3.1-10,10.5-10c7.2,0,10.8,4.6,10.1,12.2
				h-14.3c0,1.6,1,3.3,4.2,3.3c3,0,4.9-0.9,6-1.7L250.4,92.2z M245.6,83.3c0-1.7-0.9-3.9-4.2-3.9s-4.2,2.2-4.2,3.9H245.6z"/>
		</g>
	</g>
	<g>
		<g>
			<path d="M267,79.8c0.7-2.2,2.7-5.2,7.5-5.2c4,0,7,2,7,6.1c0,2.4-1.6,4-3.4,5.9l-4.1,4h7.6v3.9h-14.3v-3l7.9-7.8
				c1.2-1.2,1.8-2,1.8-2.9c0-1.3-0.8-2.2-2.5-2.2c-2.1,0-2.9,1.5-3.5,2.6L267,79.8z"/>
			<path d="M290.2,95c-5.8,0-8.6-4.5-8.6-10.2c0-5.7,2.7-10.2,8.6-10.2c5.8,0,8.6,4.5,8.6,10.2C298.7,90.4,296,95,290.2,95z
				 M290.2,78.5c-2.9,0-4.1,2.5-4.1,6.3c0,3.8,1.2,6.3,4.1,6.3c2.9,0,4.1-2.5,4.1-6.3C294.3,80.9,293,78.5,290.2,78.5z"/>
			<path d="M298.6,79.8c0.7-2.2,2.7-5.2,7.5-5.2c4,0,7,2,7,6.1c0,2.4-1.6,4-3.4,5.9l-4.1,4h7.6v3.9h-14.3v-3l7.9-7.8
				c1.2-1.2,1.8-2,1.8-2.9c0-1.3-0.8-2.2-2.5-2.2c-2.1,0-2.9,1.5-3.5,2.6L298.6,79.8z"/>
			<path d="M321.9,95c-5.8,0-8.6-4.5-8.6-10.2c0-5.7,2.7-10.2,8.6-10.2c5.8,0,8.6,4.5,8.6,10.2C330.4,90.4,327.7,95,321.9,95z
				 M321.9,78.5c-2.9,0-4.1,2.5-4.1,6.3c0,3.8,1.2,6.3,4.1,6.3c2.9,0,4.1-2.5,4.1-6.3C325.9,80.9,324.7,78.5,321.9,78.5z"/>
		</g>
	</g>
</g>
</svg>
