<svg id="Layer_1" data-name="Layer 1" xmlns="http://www.w3.org/2000/svg" viewBox="0 0 50 35"><defs><style>.cls-1{fill:#768389;}</style></defs><title>navigation-002</title><path class="cls-1" d="M24.89,13.7a7.3,7.3,0,1,0,7.3,7.3A7.3,7.3,0,0,0,24.89,13.7Zm0,12.39a4.84,4.84,0,0,1-5-5.09,4.94,4.94,0,0,1,5-5.09A4.76,4.76,0,0,1,29.83,21,4.72,4.72,0,0,1,24.89,26.09Z"/><path class="cls-1" d="M32.05,19.93H36.8a0.2,0.2,0,0,1,.2.2v1.6a0.2,0.2,0,0,1-.2.2H32.05a0,0,0,0,1,0,0v-2A0,0,0,0,1,32.05,19.93Z"/><path class="cls-1" d="M13.2,19.93h4.75a0,0,0,0,1,0,0v2a0,0,0,0,1,0,0H13.2a0.2,0.2,0,0,1-.2-0.2v-1.6A0.2,0.2,0,0,1,13.2,19.93Z"/></svg>