<?xml version="1.0" encoding="utf-8"?>
<!-- Generator: Adobe Illustrator 21.0.0, SVG Export Plug-In . SVG Version: 6.00 Build 0)  -->
<svg version="1.1" id="Layer_1" xmlns="http://www.w3.org/2000/svg" xmlns:xlink="http://www.w3.org/1999/xlink" x="0px" y="0px"
	 viewBox="0 0 107 75" style="enable-background:new 0 0 107 75;" xml:space="preserve">
<style type="text/css">
	.st0{fill:#5A666B;}
</style>
<title>Artboard 13 copy 2</title>
<g id="panel">
	<path class="st0" d="M53.5,60.6c-0.8,0-1.5-0.2-2.2-0.5c-0.1,0-0.5-0.2-1-0.5s-1.3-0.7-2.5-1.4s-2.3-1.4-3.4-2.2
		c-1.2-0.9-2.4-1.9-3.6-2.9c-1.3-1.1-2.4-2.4-3.5-3.7c-1.1-1.4-1.9-3-2.6-4.6c-0.7-1.8-1.1-3.7-1.1-5.6V19.4c0-1.3,0.5-2.6,1.5-3.5
		c0.9-0.9,2.2-1.4,3.5-1.4h29.6c2.7,0,4.9,2.2,4.9,4.9v19.8c0,1.9-0.4,3.8-1.1,5.6c-0.6,1.7-1.5,3.2-2.6,4.6c-1,1.4-2.2,2.6-3.5,3.7
		c-1.1,1-2.3,2-3.6,2.9c-1.1,0.8-2.2,1.5-3.4,2.2s-2,1.1-2.5,1.4l-1.2,0.6C54.9,60.4,54.2,60.6,53.5,60.6z M52.8,54.2l-0.2,0.1
		L52.8,54.2z M54.1,54.2L54.1,54.2L54.1,54.2z M40.3,21v18.2c0,1.1,0.2,2.2,0.6,3.2c0.4,1.1,1,2.1,1.7,3.1c0.8,1,1.7,2,2.6,2.8
		c1,0.9,2,1.7,3,2.4c0.9,0.6,1.9,1.3,2.9,1.8s1.7,1,2.1,1.2l0.3,0.2l0.3-0.2c0.4-0.2,1.1-0.6,2.1-1.2s2-1.2,2.9-1.8
		c1-0.7,2-1.5,3-2.4s1.8-1.8,2.6-2.8c0.7-1,1.3-2,1.7-3.1c0.4-1,0.6-2.1,0.6-3.2V21H40.3z"/>
</g>
</svg>
