<svg id="Layer_1" data-name="Layer 1" xmlns="http://www.w3.org/2000/svg" viewBox="0 0 50 35"><defs><style>.cls-1{fill:#768389;}</style></defs><title>navigation-002</title><path class="cls-1" d="M30.42,16.57a3,3,0,0,1-1-1.07H19.75a3,3,0,0,1-1,1.07,2.77,2.77,0,0,1-1.48.4,2.93,2.93,0,1,1,0-5.87,2.77,2.77,0,0,1,1.48.4,3,3,0,0,1,1,1.07h9.63a3,3,0,0,1,1-1.07,2.77,2.77,0,0,1,1.48-.4,2.93,2.93,0,1,1,0,5.87A2.77,2.77,0,0,1,30.42,16.57Zm0.24-1.29a1.74,1.74,0,1,0,0-2.47A1.72,1.72,0,0,0,30.66,15.27Zm-12.19,0a1.74,1.74,0,1,0-2.47,0A1.72,1.72,0,0,0,18.47,15.27Zm0.24,13a2.77,2.77,0,0,1-1.48.4,2.93,2.93,0,1,1,0-5.87,2.77,2.77,0,0,1,1.48.4,3,3,0,0,1,1,1.07H29a1.58,1.58,0,0,0,1.47-1.47V21.5a0.13,0.13,0,0,0-.13-0.13H28.49a0.41,0.41,0,0,1-.29-0.7l3.38-3.38a0.46,0.46,0,0,1,.65,0l3.36,3.36a0.42,0.42,0,0,1-.3.72H33.52a0.16,0.16,0,0,0-.16.16v1.31a4.73,4.73,0,0,1-4.4,4.4H19.75A3,3,0,0,1,18.71,28.3ZM16,27a1.74,1.74,0,1,0,0-2.48A1.72,1.72,0,0,0,16,27Z"/></svg>