<svg id="Layer_1" data-name="Layer 1" xmlns="http://www.w3.org/2000/svg" viewBox="0 0 50 35"><defs><style>.cls-1{fill:#768389;}</style></defs><title>navigation-002</title><path class="cls-1" d="M35.19,16l-2.65-.4a7.86,7.86,0,0,0-.5-1.32c0.16-.22.42-0.54,0.74-1s1.08-1.42,1.21-1.61a20.5,20.5,0,0,0-2.76-2.61L28.76,11a8.2,8.2,0,0,0-1.2-.5L27.09,7.23c0-.27-3.78-0.33-3.81-0.07-0.06.46-.24,1.89-0.38,3.11a8,8,0,0,0-1.21.61L19.06,8.75a18.65,18.65,0,0,0-2.77,2.87c0.59,0.73,1.73,2.19,2.09,2.7a6.73,6.73,0,0,0-.52,1.24s-3.35.51-3.35,0.62v3.54a30.92,30.92,0,0,0,3.23.55,7.12,7.12,0,0,0,.6,1.34c-0.16.23-1.62,2.33-1.62,2.44a27.89,27.89,0,0,0,2.63,2.73c0.13,0,2.37-1.84,2.37-1.84a8.15,8.15,0,0,0,1.2.5l0.37,2.48c0,0.12,3.9.17,4-.08,0.11-.45.2-1.3,0.34-2.52a7.27,7.27,0,0,0,1.21-.45s2.07,1.62,2.18,1.62a22,22,0,0,0,2.69-2.71c0-.12-1.25-1.75-1.56-2.2a8.58,8.58,0,0,0,.52-1.23l2.86-.41A23.35,23.35,0,0,0,35.19,16ZM25.11,22.86A4.92,4.92,0,1,1,30,17.94,4.88,4.88,0,0,1,25.11,22.86Z"/></svg>