<svg id="Layer_1" data-name="Layer 1" xmlns="http://www.w3.org/2000/svg" viewBox="0 0 50 35"><defs><style>.cls-1{fill:#4f5b60;}</style></defs><title>navigation-002</title><path class="cls-1" d="M17.22,14.16H13.95a0.39,0.39,0,0,1-.38-0.39V10.33a0.39,0.39,0,0,1,.38-0.39h3.28a0.39,0.39,0,0,1,.38.39v3.44A0.39,0.39,0,0,1,17.22,14.16Z"/><path class="cls-1" d="M34.41,14.16H19.32a0.39,0.39,0,0,1-.38-0.39V10.33a0.39,0.39,0,0,1,.38-0.39H34.41a0.39,0.39,0,0,1,.38.39v3.44A0.39,0.39,0,0,1,34.41,14.16Z"/><path class="cls-1" d="M17.22,20.68H13.95a0.39,0.39,0,0,1-.38-0.39V16.84a0.39,0.39,0,0,1,.38-0.39h3.28a0.39,0.39,0,0,1,.38.39v3.44A0.39,0.39,0,0,1,17.22,20.68Z"/><path class="cls-1" d="M34.41,20.68H19.32a0.39,0.39,0,0,1-.38-0.39V16.84a0.39,0.39,0,0,1,.38-0.39H34.41a0.39,0.39,0,0,1,.38.39v3.44A0.39,0.39,0,0,1,34.41,20.68Z"/><path class="cls-1" d="M17.22,27.5H13.95a0.39,0.39,0,0,1-.38-0.39V23.66a0.39,0.39,0,0,1,.38-0.39h3.28a0.39,0.39,0,0,1,.38.39V27.1A0.39,0.39,0,0,1,17.22,27.5Z"/><path class="cls-1" d="M34.41,27.5H19.32a0.39,0.39,0,0,1-.38-0.39V23.66a0.39,0.39,0,0,1,.38-0.39H34.41a0.39,0.39,0,0,1,.38.39V27.1A0.39,0.39,0,0,1,34.41,27.5Z"/></svg>