<svg id="Layer_1" data-name="Layer 1" xmlns="http://www.w3.org/2000/svg" viewBox="0 0 50 35"><defs><style>.cls-1{fill:#4f5b60;}</style></defs><title>navigation-002</title><path class="cls-1" d="M20.56,18V17a0.38,0.38,0,0,1,.13-0.29l2.72-2.27c0.42-.35.77-0.19,0.77,0.36v0.24a0.38,0.38,0,0,1-.13.29l-2.13,1.83a0.39,0.39,0,0,0,0,.58L24,19.62a0.38,0.38,0,0,1,.13.29v0.24c0,0.55-.35.71-0.77,0.36l-2.72-2.25A0.38,0.38,0,0,1,20.56,18Z"/><path class="cls-1" d="M26.37,20.51c-0.42.35-.77,0.19-0.77-0.36V19.91a0.39,0.39,0,0,1,.13-0.29l2.12-1.83a0.39,0.39,0,0,0,0-.59l-2.12-1.82a0.39,0.39,0,0,1-.13-0.29V14.85c0-.55.35-0.71,0.77-0.36l2.72,2.26a0.39,0.39,0,0,1,.13.29V18a0.39,0.39,0,0,1-.13.29Z"/><path class="cls-1" d="M33.51,26.85a1,1,0,0,1-1,1h-15a1,1,0,0,1-1-1V8.15a1,1,0,0,1,1-1h15a1,1,0,0,1,1,1V26.85ZM18.28,25a1,1,0,0,0,1,1H30.72a1,1,0,0,0,1-1V10a1,1,0,0,0-1-1H19.28a1,1,0,0,0-1,1V25Z"/></svg>