<svg id="Layer_1" data-name="Layer 1" xmlns="http://www.w3.org/2000/svg" viewBox="0 0 50 35"><defs><style>.cls-1{fill:#4f5b60;}</style></defs><title>navigation-002</title><path class="cls-1" d="M36.2,24.95L29.94,9.62a0.29,0.29,0,0,0-.48,0l-2.1,4.8a0.22,0.22,0,0,1-.33.08l-2-1.55a0.21,0.21,0,0,0-.31.07L21.7,19.66a0.2,0.2,0,0,1-.36,0l-2.7-5.84a0.2,0.2,0,0,0-.37,0l-2.51,8.43a0.2,0.2,0,0,1-.26.13l-2-.78v2.14L16.79,25a0.2,0.2,0,0,0,.26-0.13l1.61-5.42a0.2,0.2,0,0,1,.37,0l2.3,5a0.2,0.2,0,0,0,.36,0l3.8-8.27a0.2,0.2,0,0,1,.31-0.07l2,1.58a0.22,0.22,0,0,0,.34-0.09l1.13-2.66a0.21,0.21,0,0,1,.39,0l4,10h2.6A0.27,0.27,0,0,1,36.2,24.95Z"/><path class="cls-1" d="M34.11,27H13.2c-0.11,0-.08.09-0.08,0.2v1.6c0,0.11,0,.2.08,0.2H37.12a17.76,17.76,0,0,0-.32-2H34.11Z"/></svg>