<svg id="Layer_1" data-name="Layer 1" xmlns="http://www.w3.org/2000/svg" viewBox="0 0 50 35"><defs><style>.cls-1{fill:#34b2ac;}</style></defs><title>navigation-002</title><path class="cls-1" d="M26.09,21a1.14,1.14,0,0,1-.29.9,1.44,1.44,0,0,1-.94.25,1.28,1.28,0,0,1-1-.28A1.26,1.26,0,0,1,23.64,21a1.22,1.22,0,0,1,.27-0.89,1.32,1.32,0,0,1,.95-0.27,1.38,1.38,0,0,1,1,.26A1.22,1.22,0,0,1,26.09,21Zm-0.86-2.27H24.51A0.47,0.47,0,0,1,24,18.27l-0.22-6.18a0.47,0.47,0,0,1,.47-0.48h1.14a0.47,0.47,0,0,1,.47.48l-0.2,6.18A0.47,0.47,0,0,1,25.23,18.72Z"/><path class="cls-1" d="M25,7.5a10,10,0,1,0,10,10A10,10,0,0,0,25,7.5Zm0,18c-3.34,0-8-2.88-8-8,0-3.47,3.1-8,8-8,3.32,0,8,2.86,8,8A8.16,8.16,0,0,1,25,25.5Z"/></svg>